<svg width="119" height="120" viewBox="0 0 119 120" fill="none" xmlns="http://www.w3.org/2000/svg">
<path fill-rule="evenodd" clip-rule="evenodd" d="M42.9555 113.189L7.52764 77.7613C3.19453 73.1165 0.54303 66.8826 0.54303 60.0294C0.54303 52.8777 3.43047 46.4005 8.10316 41.6998V41.6632L42.9555 6.81086C47.5736 2.61036 53.7101 0.0499344 60.4446 0.0499344C67.2953 0.0499344 73.5271 2.69947 78.1713 7.02973L97.1947 26.0531C100.319 29.1773 100.319 34.2426 97.1947 37.3668C94.0705 40.491 89.0052 40.491 85.881 37.3668L68.3511 19.8369H68.2808C68.1599 19.6847 68.0347 19.536 67.9053 19.3912L67.1034 18.5892C65.3351 17.0099 63.002 16.0499 60.4446 16.0499C57.9593 16.0499 55.6857 16.9566 53.9366 18.4572L52.8518 19.542C52.7688 19.6387 52.6877 19.737 52.6084 19.8369H52.5569L19.6465 52.7473V52.7879C17.7346 54.6093 16.543 57.1802 16.543 60.0294C16.543 62.9932 17.8324 65.6559 19.8809 67.4871L52.5569 100.163H52.6084C52.6877 100.263 52.7689 100.361 52.8519 100.458L53.9366 101.543C55.6857 103.043 57.9593 103.95 60.4446 103.95C63.002 103.95 65.3351 102.99 67.1034 101.411L67.9053 100.609C68.0347 100.464 68.1599 100.315 68.2808 100.163H68.3511L85.881 82.6332C89.0052 79.509 94.0705 79.509 97.1947 82.6332C100.319 85.7574 100.319 90.8227 97.1947 93.9469L78.1714 112.97C73.5272 117.301 67.2953 119.95 60.4446 119.95C53.7101 119.95 47.5736 117.39 42.9555 113.189Z" fill="#DE5C8E"/>
<path fill-rule="evenodd" clip-rule="evenodd" d="M53.2767 54.7045C53.0084 55.5042 52.8631 56.3604 52.8631 57.2504C52.8631 59.3002 53.634 61.1699 54.9016 62.5855C55.004 62.6778 55.1046 62.7734 55.2032 62.872L74.5597 82.2285C77.6838 85.3527 77.6839 90.418 74.5597 93.5422L66.0744 102.027C62.9502 105.152 57.8849 105.152 54.7607 102.027L35.4042 82.671C35.3164 82.5832 35.2311 82.4938 35.1482 82.403C33.724 81.0948 31.8242 80.2963 29.738 80.2963C27.7744 80.2963 25.9761 81.0037 24.5839 82.1775L24.0975 82.664C20.9733 85.7882 20.9733 90.8535 24.0975 93.9777L42.7475 112.628C52.5106 122.391 68.3397 122.391 78.1029 112.628L97.1947 93.5358C100.319 90.4116 100.319 85.3463 97.1947 82.2221L69.6771 54.7045H53.2767Z" fill="#F8B2CD"/>
<path d="M37.6479 60C37.6479 55.5817 41.2297 52 45.6479 52L110.457 52C114.875 52 118.457 55.5817 118.457 60C118.457 64.4183 114.875 68 110.457 68H45.6479C41.2297 68 37.6479 64.4183 37.6479 60Z" fill="#909090"/>
</svg>
